<?xml version="1.0" encoding="UTF-8"?>
<svg viewBox="0 0 450 300" xmlns="http://www.w3.org/2000/svg">
  <!-- Main container -->
  <rect x="75" y="50" width="300" height="200" rx="10" ry="10" fill="#f7f8f9" stroke="#eaeaea" stroke-width="2"/>
  
  <!-- Dashboard header -->
  <rect x="75" y="50" width="300" height="30" rx="10" ry="10" fill="#e61f34" opacity="0.1"/>
  
  <!-- Header title line -->
  <line x1="130" y1="65" x2="250" y2="65" stroke="#aab0b6" stroke-width="4" stroke-linecap="round"/>
  
  <!-- AI icon in header -->
  <circle cx="100" cy="65" r="8" fill="#e61f34"/>
  <circle cx="100" cy="65" r="4" fill="white"/>
  
  <!-- Grid layout -->
  <!-- Top left widget - Line chart -->
  <rect x="90" y="95" width="125" height="65" rx="5" ry="5" fill="white" stroke="#eaeaea" stroke-width="1"/>
  <path d="M100 140 L115 125 L130 135 L145 120 L160 130 L175 110 L190 125 L205 115" 
        stroke="#e61f34" stroke-width="2" fill="none"/>
  <line x1="100" y1="145" x2="205" y2="145" stroke="#aab0b6" stroke-width="1"/>
  
  <!-- Top right widget - Donut chart -->
  <rect x="235" y="95" width="125" height="65" rx="5" ry="5" fill="white" stroke="#eaeaea" stroke-width="1"/>
  <circle cx="297" cy="127" r="25" fill="none" stroke="#eaeaea" stroke-width="10"/>
  <path d="M297 127 L297 102 A25 25 0 0 1 319 135 Z" fill="#e61f34" stroke="none"/>
  <path d="M297 127 L319 135 A25 25 0 0 1 285 149 Z" fill="#e61f34" opacity="0.7" stroke="none"/>
  
  <!-- Bottom left widget - Bar chart -->
  <rect x="90" y="170" width="125" height="65" rx="5" ry="5" fill="white" stroke="#eaeaea" stroke-width="1"/>
  <rect x="105" y="210" width="10" height="15" fill="#e61f34" opacity="0.6"/>
  <rect x="125" y="200" width="10" height="25" fill="#e61f34" opacity="0.7"/>
  <rect x="145" y="190" width="10" height="35" fill="#e61f34" opacity="0.8"/>
  <rect x="165" y="195" width="10" height="30" fill="#e61f34" opacity="0.9"/>
  <rect x="185" y="185" width="10" height="40" fill="#e61f34"/>
  <line x1="100" y1="225" x2="205" y2="225" stroke="#aab0b6" stroke-width="1"/>
  
  <!-- Bottom right widget - KPI cards -->
  <rect x="235" y="170" width="125" height="65" rx="5" ry="5" fill="white" stroke="#eaeaea" stroke-width="1"/>
  <!-- Mini KPI card 1 -->
  <rect x="245" y="180" width="45" height="45" rx="3" ry="3" fill="#e61f34" opacity="0.05"/>
  <line x1="255" y1="195" x2="280" y2="195" stroke="#aab0b6" stroke-width="2" stroke-linecap="round"/>
  <line x1="255" y1="210" x2="275" y2="210" stroke="#e61f34" stroke-width="3" stroke-linecap="round"/>
  <!-- Mini KPI card 2 -->
  <rect x="300" y="180" width="45" height="45" rx="3" ry="3" fill="#e61f34" opacity="0.05"/>
  <line x1="310" y1="195" x2="335" y2="195" stroke="#aab0b6" stroke-width="2" stroke-linecap="round"/>
  <line x1="310" y1="210" x2="330" y2="210" stroke="#e61f34" stroke-width="3" stroke-linecap="round"/>
  
  <!-- Top connection - AI intelligence -->
  <path d="M225 50 L225 30" stroke="#e61f34" stroke-width="1.5" stroke-dasharray="2,2"/>
  <circle cx="225" cy="30" r="10" fill="#e61f34" opacity="0.8"/>
  <circle cx="225" cy="30" r="5" fill="white"/>
  
  <!-- Bottom connection - Data source -->
  <path d="M225 250 L225 270" stroke="#e61f34" stroke-width="1.5" stroke-dasharray="2,2"/>
  <rect x="210" y="270" width="30" height="10" rx="2" ry="2" fill="#aab0b6"/>
  <rect x="215" y="270" width="5" height="10" fill="white" opacity="0.5"/>
  <rect x="225" y="270" width="5" height="10" fill="white" opacity="0.5"/>
  
  <!-- Left side connection - Users -->
  <path d="M75 150 L55 150" stroke="#e61f34" stroke-width="1.5" stroke-dasharray="2,2"/>
  <circle cx="40" cy="150" r="12" fill="#aab0b6"/>
  <circle cx="40" cy="143" r="5" fill="white"/>
  <path d="M32 155 L48 155 C 48 160, 32 160, 32 155 Z" fill="white"/>
  
  <!-- Right side connection - Sharing -->
  <path d="M375 150 L395 150" stroke="#e61f34" stroke-width="1.5" stroke-dasharray="2,2"/>
  <circle cx="410" cy="150" r="10" fill="#aab0b6"/>
  <path d="M405 150 L415 150 M410 145 L410 155" stroke="white" stroke-width="1.5"/>
</svg>