<?xml version="1.0" encoding="UTF-8"?>
<svg viewBox="0 0 450 300" xmlns="http://www.w3.org/2000/svg">
  <!-- Main container -->
  <rect x="75" y="50" width="300" height="200" rx="10" ry="10" fill="#f7f8f9" stroke="#eaeaea" stroke-width="2"/>
  
  <!-- Header bar -->
  <rect x="75" y="50" width="300" height="30" rx="10" ry="10" fill="#e61f34" opacity="0.1"/>
  
  <!-- Header title line -->
  <line x1="145" y1="65" x2="265" y2="65" stroke="#aab0b6" stroke-width="4" stroke-linecap="round"/>
  
  <!-- AI icon in header -->
  <circle cx="110" cy="65" r="8" fill="#e61f34"/>
  <circle cx="110" cy="65" r="4" fill="white"/>
  
  <!-- Control panel grid layout -->
  <!-- Left section - Controls -->
  <rect x="90" y="95" width="125" height="140" rx="5" ry="5" fill="white" stroke="#eaeaea" stroke-width="1"/>
  
  <!-- Toggle switches -->
  <rect x="110" y="115" width="30" height="15" rx="7.5" ry="7.5" fill="#e61f34"/>
  <circle cx="130" cy="122.5" r="7.5" fill="white"/>
  <line x1="155" y1="122.5" x2="185" y2="122.5" stroke="#aab0b6" stroke-width="2" stroke-linecap="round"/>
  
  <rect x="110" y="145" width="30" height="15" rx="7.5" ry="7.5" fill="#aab0b6"/>
  <circle cx="120" cy="152.5" r="7.5" fill="white"/>
  <line x1="155" y1="152.5" x2="185" y2="152.5" stroke="#aab0b6" stroke-width="2" stroke-linecap="round"/>
  
  <!-- Slider controls -->
  <line x1="110" y1="185" x2="190" y2="185" stroke="#aab0b6" stroke-width="2" stroke-linecap="round"/>
  <circle cx="145" cy="185" r="7" fill="#e61f34"/>
  
  <line x1="110" y1="210" x2="190" y2="210" stroke="#aab0b6" stroke-width="2" stroke-linecap="round"/>
  <circle cx="170" cy="210" r="7" fill="#e61f34"/>
  
  <!-- Right section - Monitoring -->
  <rect x="235" y="95" width="125" height="140" rx="5" ry="5" fill="white" stroke="#eaeaea" stroke-width="1"/>
  
  <!-- Status monitor - Line graph -->
  <rect x="245" y="105" width="105" height="50" rx="3" ry="3" fill="#f7f8f9"/>
  <path d="M250 140 L260 130 L270 135 L280 125 L290 145 L300 120 L310 125 L320 115 L330 130 L340 110" 
        stroke="#e61f34" stroke-width="1.5" fill="none"/>
  
  <!-- Status indicators -->
  <circle cx="260" cy="175" r="10" fill="#e61f34"/>
  <line x1="275" y1="175" x2="330" y2="175" stroke="#aab0b6" stroke-width="2" stroke-linecap="round"/>
  
  <circle cx="260" cy="205" r="10" fill="#aab0b6"/>
  <line x1="275" y1="205" x2="310" y2="205" stroke="#aab0b6" stroke-width="2" stroke-linecap="round"/>
  
  <!-- Central control knob -->
  <circle cx="225" cy="150" r="20" fill="white" stroke="#e61f34" stroke-width="2"/>
  <circle cx="225" cy="150" r="15" fill="#f7f8f9"/>
  <line x1="225" y1="150" x2="225" y2="135" stroke="#e61f34" stroke-width="2"/>
  
  <!-- Connection points -->
  <!-- Top connection - AI oversight -->
  <path d="M225 50 L225 30" stroke="#e61f34" stroke-width="1.5" stroke-dasharray="2,2"/>
  <circle cx="225" cy="30" r="10" fill="#e61f34" opacity="0.8"/>
  <circle cx="225" cy="30" r="5" fill="white"/>
  
  <!-- Bottom connection - Systems -->
  <path d="M225 250 L225 270" stroke="#e61f34" stroke-width="1.5" stroke-dasharray="2,2"/>
  <rect x="210" y="270" width="30" height="15" rx="2" ry="2" fill="#aab0b6"/>
  <rect x="213" y="270" width="6" height="15" fill="white" opacity="0.5"/>
  <rect x="223" y="270" width="6" height="15" fill="white" opacity="0.5"/>
  <rect x="233" y="270" width="6" height="15" fill="white" opacity="0.5"/>
  
  <!-- Left connection - User access -->
  <path d="M75 150 L55 150" stroke="#e61f34" stroke-width="1.5" stroke-dasharray="2,2"/>
  <circle cx="40" cy="150" r="12" fill="#aab0b6"/>
  <path d="M40 143 C 35 143, 35 152, 40 152 C 45 152, 45 143, 40 143" fill="white"/>
  <path d="M33 158 L47 158 C 47 165, 33 165, 33 158" fill="white"/>
  
  <!-- Right connection - External systems -->
  <path d="M375 150 L395 150" stroke="#e61f34" stroke-width="1.5" stroke-dasharray="2,2"/>
  <rect x="395" y="140" width="20" height="20" rx="3" ry="3" fill="#aab0b6"/>
  <path d="M400 145 L410 145 L410 155 L400 155 L400 145" fill="white" stroke="white" stroke-width="1"/>
</svg>