<?xml version="1.0" encoding="UTF-8"?>
<svg width="377px" height="168px" viewBox="0 0 377 168" version="1.1" xmlns="http://www.w3.org/2000/svg" xmlns:xlink="http://www.w3.org/1999/xlink">
    <title>Group</title>
    <g id="Page-1" stroke="none" stroke-width="1" fill="none" fill-rule="evenodd">
        <g id="Group" transform="translate(2.000000, 0.000000)">
            <line x1="13.3214286" y1="160.031621" x2="359.678571" y2="160.031621" id="Path" stroke="#E61F34" stroke-width="3.993" fill="#000000" fill-rule="nonzero"></line>
            <ellipse id="Oval" fill="#BBBBBB" fill-rule="nonzero" cx="53.2857143" cy="160.031621" rx="7.99285714" ry="7.96837945"></ellipse>
            <ellipse id="Oval" fill="#BBBBBB" fill-rule="nonzero" cx="159.857143" cy="160.031621" rx="7.99285714" ry="7.96837945"></ellipse>
            <ellipse id="Oval" fill="#BBBBBB" fill-rule="nonzero" cx="266.428571" cy="160.031621" rx="7.99285714" ry="7.96837945"></ellipse>
            <ellipse id="Oval" fill="#CCCCCC" fill-rule="nonzero" cx="53.2857143" cy="93.6284585" rx="6.66071429" ry="6.64031621"></ellipse>
            <ellipse id="Oval" fill="#CCCCCC" fill-rule="nonzero" cx="159.857143" cy="53.7865613" rx="6.66071429" ry="6.64031621"></ellipse>
            <ellipse id="Oval" fill="#CCCCCC" fill-rule="nonzero" cx="266.428571" cy="13.944664" rx="6.66071429" ry="6.64031621"></ellipse>
            <path d="M53.2857143,93.6284585 C88.8095238,80.3478261 124.333333,67.0671937 159.857143,53.7865613 C195.380952,40.5059289 230.904762,27.2252964 266.428571,13.944664" id="Path" stroke="#CCCCCC" stroke-width="2.662" stroke-dasharray="6.65500020980835,6.65500020980835"></path>
            <line x1="13.3214286" y1="120.189723" x2="359.678571" y2="120.189723" id="Path" stroke="#EAEAEA" stroke-width="1.331" fill="#000000" fill-rule="nonzero"></line>
            <line x1="13.3214286" y1="80.3478261" x2="359.678571" y2="80.3478261" id="Path" stroke="#EAEAEA" stroke-width="1.331" fill="#000000" fill-rule="nonzero"></line>
            <line x1="13.3214286" y1="40.5059289" x2="359.678571" y2="40.5059289" id="Path" stroke="#EAEAEA" stroke-width="1.331" fill="#000000" fill-rule="nonzero"></line>
            <line x1="13.3214286" y1="0.664031621" x2="359.678571" y2="0.664031621" id="Path" stroke="#EAEAEA" stroke-width="1.331" fill="#000000" fill-rule="nonzero"></line>
            <rect id="Rectangle" stroke="#BBBBBB" stroke-width="2.662" fill="#FFFFFF" fill-rule="nonzero" x="0" y="53.7865613" width="53.2857143" height="66.4031621"></rect>
            <rect id="Rectangle" stroke="#BBBBBB" stroke-width="2.662" fill="#FFFFFF" fill-rule="nonzero" x="6.66071429" y="47.1462451" width="53.2857143" height="66.4031621"></rect>
            <rect id="Rectangle" stroke="#BBBBBB" stroke-width="2.662" fill="#FFFFFF" fill-rule="nonzero" x="13.3214286" y="40.5059289" width="53.2857143" height="66.4031621"></rect>
            <line x1="26.6428571" y1="60.4268775" x2="53.2857143" y2="60.4268775" id="Path" stroke="#BBBBBB" stroke-width="1.331" fill="#000000" fill-rule="nonzero"></line>
            <line x1="26.6428571" y1="73.7075099" x2="53.2857143" y2="73.7075099" id="Path" stroke="#BBBBBB" stroke-width="1.331" fill="#000000" fill-rule="nonzero"></line>
            <line x1="26.6428571" y1="86.9881423" x2="53.2857143" y2="86.9881423" id="Path" stroke="#BBBBBB" stroke-width="1.331" fill="#000000" fill-rule="nonzero"></line>
            <ellipse id="Oval" stroke="#BBBBBB" stroke-width="3.993" cx="319.714286" cy="53.7865613" rx="39.9642857" ry="39.8418972"></ellipse>
            <line x1="349.021429" y1="83.0039526" x2="373" y2="106.909091" id="Path" stroke="#BBBBBB" stroke-width="3.993" fill="#000000" fill-rule="nonzero"></line>
        </g>
    </g>
</svg>