<?xml version="1.0" encoding="UTF-8"?>
<svg width="417px" height="267px" viewBox="0 0 417 267" version="1.1" xmlns="http://www.w3.org/2000/svg" xmlns:xlink="http://www.w3.org/1999/xlink">
    <title>Group</title>
    <g id="Page-1" stroke="none" stroke-width="1" fill="none" fill-rule="evenodd">
        <g id="Group">
            <rect id="Rectangle" stroke="#EAEAEA" stroke-width="2" fill="#FFFFFF" fill-rule="nonzero" x="32" y="25" width="350" height="220" rx="15"></rect>
            <circle id="Oval" fill="#E61F34" fill-rule="nonzero" cx="62" cy="65" r="15"></circle>
            <circle id="Oval" fill="#FFFFFF" fill-rule="nonzero" cx="62" cy="65" r="7"></circle>
            <rect id="Rectangle" fill="#F7F8F9" fill-rule="nonzero" x="87" y="50" width="270" height="30" rx="15"></rect>
            <circle id="Oval" fill="#AAB0B6" fill-rule="nonzero" cx="62" cy="105" r="15"></circle>
            <rect id="Rectangle" fill="#FFFFFF" fill-rule="nonzero" x="54" y="100" width="16" height="10" rx="5"></rect>
            <rect id="Rectangle" fill="#AAB0B6" fill-rule="nonzero" opacity="0.1" x="87" y="90" width="220" height="30" rx="15"></rect>
            <circle id="Oval" fill="#E61F34" fill-rule="nonzero" cx="62" cy="155" r="15"></circle>
            <circle id="Oval" fill="#FFFFFF" fill-rule="nonzero" cx="62" cy="155" r="7"></circle>
            <rect id="Rectangle" fill="#F7F8F9" fill-rule="nonzero" x="87" y="140" width="270" height="50" rx="15"></rect>
            <rect id="Rectangle" fill="#E61F34" fill-rule="nonzero" opacity="0.7" x="107" y="160" width="15" height="15"></rect>
            <rect id="Rectangle" fill="#E61F34" fill-rule="nonzero" opacity="0.8" x="132" y="150" width="15" height="25"></rect>
            <rect id="Rectangle" fill="#E61F34" fill-rule="nonzero" opacity="0.9" x="157" y="140" width="15" height="35"></rect>
            <rect id="Rectangle" fill="#E61F34" fill-rule="nonzero" x="182" y="155" width="15" height="20"></rect>
            <polyline id="Path" stroke="#AAB0B6" stroke-width="2" points="222 165 237 150 252 160 267 145 282 155 297 140"></polyline>
            <circle id="Oval" fill="#AAB0B6" fill-rule="nonzero" cx="222" cy="165" r="3"></circle>
            <circle id="Oval" fill="#AAB0B6" fill-rule="nonzero" cx="237" cy="150" r="3"></circle>
            <circle id="Oval" fill="#AAB0B6" fill-rule="nonzero" cx="252" cy="160" r="3"></circle>
            <circle id="Oval" fill="#AAB0B6" fill-rule="nonzero" cx="267" cy="145" r="3"></circle>
            <circle id="Oval" fill="#AAB0B6" fill-rule="nonzero" cx="282" cy="155" r="3"></circle>
            <circle id="Oval" fill="#AAB0B6" fill-rule="nonzero" cx="297" cy="140" r="3"></circle>
            <circle id="Oval" fill="#E61F34" fill-rule="nonzero" opacity="0.1" cx="12" cy="15" r="10"></circle>
            <circle id="Oval" fill="#AAB0B6" fill-rule="nonzero" opacity="0.1" cx="402" cy="15" r="15"></circle>
            <circle id="Oval" fill="#AAB0B6" fill-rule="nonzero" opacity="0.1" cx="12" cy="255" r="12"></circle>
            <circle id="Oval" fill="#E61F34" fill-rule="nonzero" opacity="0.1" cx="402" cy="255" r="8"></circle>
        </g>
    </g>
</svg>