<?xml version="1.0" encoding="UTF-8"?>
<svg viewBox="0 0 450 300" xmlns="http://www.w3.org/2000/svg">
  <!-- Main container -->
  <rect x="100" y="50" width="250" height="200" rx="10" ry="10" fill="#f7f8f9" stroke="#eaeaea" stroke-width="2"/>
  
  <!-- Document page with shadow effect -->
  <rect x="125" y="75" width="200" height="150" rx="4" ry="4" fill="white" stroke="#eaeaea" stroke-width="1" filter="url(#shadow)"/>
  
  <!-- Shadow filter -->
  <defs>
    <filter id="shadow" x="-10%" y="-10%" width="120%" height="120%">
      <feDropShadow dx="1" dy="2" stdDeviation="2" flood-opacity="0.1"/>
    </filter>
  </defs>
  
  <!-- Report header bar -->
  <rect x="125" y="75" width="200" height="25" rx="4" ry="4" fill="#e61f34" opacity="0.1"/>
  
  <!-- AI generation icon -->
  <circle cx="145" cy="87" r="8" fill="#e61f34"/>
  <circle cx="145" cy="87" r="4" fill="white"/>
  
  <!-- Title lines -->
  <line x1="165" y1="87" x2="300" y2="87" stroke="#aab0b6" stroke-width="4" stroke-linecap="round"/>
  
  <!-- Chart Area -->
  <rect x="140" y="115" width="170" height="60" rx="2" ry="2" fill="#f7f8f9"/>
  
  <!-- Bar Chart -->
  <rect x="150" y="155" width="15" height="15" fill="#e61f34" opacity="0.6"/>
  <rect x="170" y="145" width="15" height="25" fill="#e61f34" opacity="0.7"/>
  <rect x="190" y="135" width="15" height="35" fill="#e61f34" opacity="0.8"/>
  <rect x="210" y="125" width="15" height="45" fill="#e61f34" opacity="0.9"/>
  <rect x="230" y="130" width="15" height="40" fill="#e61f34"/>
  <rect x="250" y="140" width="15" height="30" fill="#e61f34" opacity="0.9"/>
  <rect x="270" y="150" width="15" height="20" fill="#e61f34" opacity="0.8"/>
  
  <!-- Chart x-axis -->
  <line x1="140" y1="170" x2="310" y2="170" stroke="#aab0b6" stroke-width="1"/>
  
  <!-- Text content lines -->
  <line x1="140" y1="190" x2="310" y2="190" stroke="#aab0b6" stroke-width="2" stroke-linecap="round"/>
  <line x1="140" y1="205" x2="270" y2="205" stroke="#aab0b6" stroke-width="2" stroke-linecap="round"/>
  
  <!-- Data flow from left -->
  <path d="M80 150 L100 150" stroke="#e61f34" stroke-width="1.5" stroke-dasharray="2,2"/>
  <circle cx="80" cy="150" r="8" fill="#aab0b6"/>
  <circle cx="80" cy="150" r="4" fill="white"/>
  
  <!-- Data source icons -->
  <rect x="65" y="135" width="4" height="4" fill="#aab0b6"/>
  <rect x="70" y="135" width="4" height="4" fill="#aab0b6"/>
  <rect x="75" y="135" width="4" height="4" fill="#aab0b6"/>
  <rect x="80" y="135" width="4" height="4" fill="#aab0b6"/>
  <rect x="85" y="135" width="4" height="4" fill="#aab0b6"/>
  <rect x="90" y="135" width="4" height="4" fill="#aab0b6"/>
  
  <!-- Export/Share from right -->
  <path d="M350 150 L370 150" stroke="#e61f34" stroke-width="1.5" stroke-dasharray="2,2"/>
  <circle cx="370" cy="150" r="8" fill="#aab0b6"/>
  
  <!-- Export/share icon -->
  <path d="M365 147 L375 147 M370 144 L370 150 M367 146 L370 143 L373 146" stroke="#aab0b6" stroke-width="1.5"/>
  
  <!-- Top connection - AI -->
  <path d="M225 50 L225 30" stroke="#e61f34" stroke-width="1.5" stroke-dasharray="2,2"/>
  <circle cx="225" cy="30" r="10" fill="#e61f34" opacity="0.8"/>
  <circle cx="225" cy="30" r="5" fill="white"/>
  
  <!-- Bottom connection - Device -->
  <path d="M225 250 L225 270" stroke="#e61f34" stroke-width="1.5" stroke-dasharray="2,2"/>
  <rect x="215" y="270" width="20" height="15" rx="2" ry="2" fill="#aab0b6"/>
  <rect x="218" y="267" width="14" height="10" rx="1" ry="1" fill="white"/>
</svg>