<?xml version="1.0" encoding="UTF-8"?>
<svg viewBox="0 0 450 300" xmlns="http://www.w3.org/2000/svg">
  <!-- Main container -->
  <rect x="100" y="60" width="250" height="180" rx="10" ry="10" fill="#f7f8f9" stroke="#eaeaea" stroke-width="2"/>
  
  <!-- Process flow visualization -->
  <!-- Input data (left) - messy/unstructured -->
  <rect x="50" y="130" width="50" height="40" rx="5" ry="5" fill="white" stroke="#aab0b6" stroke-width="1"/>
  <line x1="60" y1="140" x2="90" y2="140" stroke="#aab0b6" stroke-width="1" stroke-dasharray="2,2"/>
  <line x1="60" y1="145" x2="85" y2="145" stroke="#aab0b6" stroke-width="1" stroke-dasharray="4,2"/>
  <line x1="60" y1="150" x2="90" y2="150" stroke="#aab0b6" stroke-width="1" stroke-dasharray="1,1"/>
  <line x1="60" y1="155" x2="75" y2="155" stroke="#aab0b6" stroke-width="1" stroke-dasharray="5,1"/>
  <line x1="60" y1="160" x2="80" y2="160" stroke="#aab0b6" stroke-width="1" stroke-dasharray="3,2"/>
  
  <!-- Output data (right) - organized/structured -->
  <rect x="350" y="130" width="50" height="40" rx="5" ry="5" fill="white" stroke="#aab0b6" stroke-width="1"/>
  <line x1="360" y1="140" x2="390" y2="140" stroke="#aab0b6" stroke-width="1"/>
  <line x1="360" y1="145" x2="390" y2="145" stroke="#aab0b6" stroke-width="1"/>
  <line x1="360" y1="150" x2="390" y2="150" stroke="#aab0b6" stroke-width="1"/>
  <line x1="360" y1="155" x2="390" y2="155" stroke="#aab0b6" stroke-width="1"/>
  <line x1="360" y1="160" x2="390" y2="160" stroke="#aab0b6" stroke-width="1"/>
  
  <!-- Process arrows -->
  <path d="M100 150 L125 150" stroke="#e61f34" stroke-width="1.5" stroke-dasharray="2,2"/>
  <path d="M325 150 L350 150" stroke="#e61f34" stroke-width="1.5" stroke-dasharray="2,2"/>
  
  <!-- Central processing stations -->
  
  <!-- Station 1: Data Cleaning -->
  <rect x="125" y="130" width="50" height="40" rx="5" ry="5" fill="white" stroke="#aab0b6" stroke-width="1"/>
  <line x1="135" y1="140" x2="165" y2="140" stroke="#aab0b6" stroke-width="1" stroke-dasharray="2,1"/>
  <line x1="135" y1="145" x2="165" y2="145" stroke="#aab0b6" stroke-width="1"/>
  <line x1="135" y1="150" x2="165" y2="150" stroke="#aab0b6" stroke-width="1"/>
  <line x1="135" y1="155" x2="165" y2="155" stroke="#aab0b6" stroke-width="1"/>
  <line x1="135" y1="160" x2="165" y2="160" stroke="#aab0b6" stroke-width="1"/>
  <circle cx="135" cy="140" r="3" fill="#e61f34"/> <!-- Marking errors -->
  <circle cx="155" cy="140" r="3" fill="#e61f34"/> <!-- Marking errors -->
  
  <!-- Station 2: Data Transformation -->
  <rect x="200" y="130" width="50" height="40" rx="5" ry="5" fill="white" stroke="#aab0b6" stroke-width="1"/>
  <path d="M210 160 L215 140 L220 155 L225 145 L230 160 L235 140 L240 160" stroke="#e61f34" stroke-width="1.5" fill="none"/>
  <path d="M210 150 L240 150" stroke="#aab0b6" stroke-width="0.5" stroke-dasharray="1,1"/>
  
  <!-- Station 3: Data Categorization -->
  <rect x="275" y="130" width="50" height="40" rx="5" ry="5" fill="white" stroke="#aab0b6" stroke-width="1"/>
  <rect x="285" y="138" width="10" height="10" rx="1" ry="1" fill="#e61f34" opacity="0.2"/>
  <rect x="300" y="138" width="10" height="10" rx="1" ry="1" fill="#e61f34" opacity="0.4"/>
  <rect x="285" y="153" width="10" height="10" rx="1" ry="1" fill="#e61f34" opacity="0.6"/>
  <rect x="300" y="153" width="10" height="10" rx="1" ry="1" fill="#e61f34" opacity="0.8"/>
  
  <!-- Process connection arrows -->
  <path d="M175 150 L200 150" stroke="#e61f34" stroke-width="1.5" stroke-dasharray="2,2"/>
  <path d="M250 150 L275 150" stroke="#e61f34" stroke-width="1.5" stroke-dasharray="2,2"/>
  
  <!-- Floating process labels - stylized as dots -->
  <!-- Cleansing indicator -->
  <circle cx="150" cy="100" r="15" fill="#f7f8f9" stroke="#e61f34" stroke-width="1"/>
  <line x1="145" y1="100" x2="155" y2="100" stroke="#e61f34" stroke-width="1.5"/>
  <line x1="143" y1="95" x2="157" y2="95" stroke="#aab0b6" stroke-width="1" stroke-dasharray="1,1"/>
  <line x1="143" y1="105" x2="157" y2="105" stroke="#aab0b6" stroke-width="1"/>
  <path d="M150 115 L150 130" stroke="#aab0b6" stroke-width="1" stroke-dasharray="2,2"/>
  
  <!-- Transformation indicator -->
  <circle cx="225" cy="100" r="15" fill="#f7f8f9" stroke="#e61f34" stroke-width="1"/>
  <path d="M219 100 L231 100" stroke="#e61f34" stroke-width="1.5"/>
  <path d="M219 100 C 219 95, 231 95, 231 100" stroke="#e61f34" stroke-width="1.5" fill="none"/>
  <path d="M225 115 L225 130" stroke="#aab0b6" stroke-width="1" stroke-dasharray="2,2"/>
  
  <!-- Categorization indicator -->
  <circle cx="300" cy="100" r="15" fill="#f7f8f9" stroke="#e61f34" stroke-width="1"/>
  <rect x="293" y="95" width="6" height="10" rx="1" ry="1" fill="#e61f34" opacity="0.4"/>
  <rect x="301" y="93" width="6" height="14" rx="1" ry="1" fill="#e61f34" opacity="0.7"/>
  <path d="M300 115 L300 130" stroke="#aab0b6" stroke-width="1" stroke-dasharray="2,2"/>
  
  <!-- AI processing indicator -->
  <circle cx="225" cy="50" r="15" fill="#e61f34" opacity="0.1"/>
  <circle cx="225" cy="50" r="10" fill="#e61f34" opacity="0.2"/>
  <circle cx="225" cy="50" r="5" fill="#e61f34"/>
  <path d="M225 65 L225 80" stroke="#e61f34" stroke-width="1" stroke-dasharray="2,2"/>
  
  <!-- Process completion indicator -->
  <circle cx="225" cy="220" r="15" fill="#f7f8f9" stroke="#aab0b6" stroke-width="1"/>
  <path d="M215 220 L223 227 L235 213" stroke="#e61f34" stroke-width="1.5" fill="none"/>
  <path d="M225 205 L225 195" stroke="#aab0b6" stroke-width="1" stroke-dasharray="2,2"/>
  
  <!-- Small decorative elements -->
  <circle cx="30" cy="30" r="8" fill="#e61f34" opacity="0.1"/>
  <circle cx="420" cy="30" r="5" fill="#e61f34" opacity="0.1"/>
  <circle cx="30" cy="270" r="5" fill="#e61f34" opacity="0.1"/>
  <circle cx="420" cy="270" r="8" fill="#e61f34" opacity="0.1"/>
</svg>