<?xml version="1.0" encoding="UTF-8"?>
<svg width="312px" height="222px" viewBox="0 0 312 222" version="1.1" xmlns="http://www.w3.org/2000/svg" xmlns:xlink="http://www.w3.org/1999/xlink">
    <title>Group 2</title>
    <g id="Page-1" stroke="none" stroke-width="1" fill="none" fill-rule="evenodd">
        <g id="Group-2" transform="translate(2.000000, 0.000000)">
            <path d="M0,88.5099502 C14.6666667,73.8499171 29.3333333,73.8499171 44,88.5099502" id="Path" stroke="#BBBBBB" stroke-width="2.2"></path>
            <path d="M0,220.450249 C14.6666667,205.790216 29.3333333,205.790216 44,220.450249" id="Path" stroke="#BBBBBB" stroke-width="2.2"></path>
            <path d="M264,88.5099502 C278.666667,73.8499171 293.333333,73.8499171 308,88.5099502" id="Path" stroke="#BBBBBB" stroke-width="2.2"></path>
            <path d="M264,220.450249 C278.666667,205.790216 293.333333,205.790216 308,220.450249" id="Path" stroke="#BBBBBB" stroke-width="2.2"></path>
            <line x1="44" y1="44.5298507" x2="99" y2="88.5099502" id="Path" stroke="#CCCCCC" stroke-width="2.2" fill="#000000" fill-rule="nonzero" stroke-dasharray="5.5,5.5"></line>
            <line x1="44" y1="176.470149" x2="99" y2="154.4801" id="Path" stroke="#CCCCCC" stroke-width="2.2" fill="#000000" fill-rule="nonzero" stroke-dasharray="5.5,5.5"></line>
            <line x1="264" y1="44.5298507" x2="209" y2="88.5099502" id="Path" stroke="#CCCCCC" stroke-width="2.2" fill="#000000" fill-rule="nonzero" stroke-dasharray="5.5,5.5"></line>
            <line x1="264" y1="176.470149" x2="209" y2="154.4801" id="Path" stroke="#CCCCCC" stroke-width="2.2" fill="#000000" fill-rule="nonzero" stroke-dasharray="5.5,5.5"></line>
            <line x1="11" y1="0.549751244" x2="297" y2="0.549751244" id="Path" stroke="#EAEAEA" stroke-width="1.1" fill="#000000" fill-rule="nonzero"></line>
            <line x1="11" y1="110.5" x2="297" y2="110.5" id="Path" stroke="#EAEAEA" stroke-width="1.1" fill="#000000" fill-rule="nonzero"></line>
            <line x1="11" y1="220.450249" x2="297" y2="220.450249" id="Path" stroke="#EAEAEA" stroke-width="1.1" fill="#000000" fill-rule="nonzero"></line>
            <rect id="Rectangle" stroke="#E61F34" stroke-width="3.3" fill="#FFFFFF" fill-rule="nonzero" x="99" y="55.5248756" width="110" height="131.940299"></rect>
            <line x1="121" y1="88.5099502" x2="187" y2="88.5099502" id="Path" stroke="#BBBBBB" stroke-width="1.65" fill="#000000" fill-rule="nonzero"></line>
            <line x1="121" y1="132.49005" x2="187" y2="132.49005" id="Path" stroke="#BBBBBB" stroke-width="1.65" fill="#000000" fill-rule="nonzero"></line>
            <line x1="121" y1="154.4801" x2="187" y2="154.4801" id="Path" stroke="#BBBBBB" stroke-width="1.65" fill="#000000" fill-rule="nonzero"></line>
            <ellipse id="Oval" stroke="#BBBBBB" stroke-width="2.2" fill="#FFFFFF" fill-rule="nonzero" cx="22" cy="44.5298507" rx="22" ry="21.9900498"></ellipse>
            <ellipse id="Oval" fill="#BBBBBB" fill-rule="nonzero" cx="22" cy="44.5298507" rx="8.8" ry="8.7960199"></ellipse>
            <ellipse id="Oval" stroke="#BBBBBB" stroke-width="2.2" fill="#FFFFFF" fill-rule="nonzero" cx="22" cy="176.470149" rx="22" ry="21.9900498"></ellipse>
            <ellipse id="Oval" fill="#BBBBBB" fill-rule="nonzero" cx="22" cy="176.470149" rx="8.8" ry="8.7960199"></ellipse>
            <ellipse id="Oval" stroke="#BBBBBB" stroke-width="2.2" fill="#FFFFFF" fill-rule="nonzero" cx="286" cy="44.5298507" rx="22" ry="21.9900498"></ellipse>
            <ellipse id="Oval" fill="#BBBBBB" fill-rule="nonzero" cx="286" cy="44.5298507" rx="8.8" ry="8.7960199"></ellipse>
            <ellipse id="Oval" stroke="#BBBBBB" stroke-width="2.2" fill="#FFFFFF" fill-rule="nonzero" cx="286" cy="176.470149" rx="22" ry="21.9900498"></ellipse>
            <ellipse id="Oval" fill="#BBBBBB" fill-rule="nonzero" cx="286" cy="176.470149" rx="8.8" ry="8.7960199"></ellipse>
            <line x1="121" y1="110.5" x2="187" y2="110.5" id="Path" stroke="#BBBBBB" stroke-width="1.65" fill="#000000" fill-rule="nonzero"></line>
        </g>
    </g>
</svg>