<?xml version="1.0" encoding="UTF-8"?>
<svg viewBox="0 0 450 300" xmlns="http://www.w3.org/2000/svg">
  <!-- Main container -->
  <rect x="100" y="70" width="250" height="160" rx="10" ry="10" fill="#f7f8f9" stroke="#eaeaea" stroke-width="2"/>
  
  <!-- Process flow arrow -->
  <path d="M125 150 L325 150" stroke="#e61f34" stroke-width="1.5" stroke-dasharray="4,2"/>
  <polygon points="320,145 325,150 320,155" fill="#e61f34"/>
  
  <!-- Input data (unorganized) -->
  <circle cx="150" cy="150" r="30" fill="white" stroke="#eaeaea" stroke-width="1.5"/>
  
  <!-- Unorganized data elements -->
  <rect x="135" y="135" width="10" height="10" fill="#aab0b6" opacity="0.4" transform="rotate(15, 140, 140)"/>
  <rect x="155" y="145" width="12" height="8" fill="#aab0b6" opacity="0.5" transform="rotate(-10, 161, 149)"/>
  <rect x="140" y="160" width="8" height="12" fill="#aab0b6" opacity="0.6" transform="rotate(25, 144, 166)"/>
  <rect x="160" y="130" width="6" height="14" fill="#aab0b6" opacity="0.4" transform="rotate(-20, 163, 137)"/>
  <rect x="130" y="145" width="14" height="6" fill="#aab0b6" opacity="0.7" transform="rotate(5, 137, 148)"/>
  <rect x="145" y="125" width="5" height="15" fill="#aab0b6" opacity="0.5" transform="rotate(40, 147.5, 132.5)"/>
  
  <!-- Organization process -->
  <rect x="200" y="120" width="50" height="60" rx="5" ry="5" fill="white" stroke="#e61f34" stroke-width="1.5" opacity="0.8"/>
  
  <!-- Process icon - AI sorting -->
  <circle cx="225" cy="140" r="10" fill="#e61f34" opacity="0.2"/>
  <circle cx="225" cy="140" r="5" fill="#e61f34"/>
  
  <!-- Sort/filter lines -->
  <line x1="210" y1="155" x2="240" y2="155" stroke="#aab0b6" stroke-width="1.5"/>
  <line x1="210" y1="160" x2="230" y2="160" stroke="#aab0b6" stroke-width="1.5"/>
  <line x1="210" y1="165" x2="235" y2="165" stroke="#aab0b6" stroke-width="1.5"/>
  
  <!-- Output data (organized) -->
  <circle cx="300" cy="150" r="30" fill="white" stroke="#eaeaea" stroke-width="1.5"/>
  
  <!-- Organized data elements -->
  <rect x="285" y="130" width="6" height="14" fill="#aab0b6" opacity="0.4"/>
  <rect x="293" y="130" width="6" height="14" fill="#aab0b6" opacity="0.5"/>
  <rect x="301" y="130" width="6" height="14" fill="#aab0b6" opacity="0.6"/>
  <rect x="309" y="130" width="6" height="14" fill="#aab0b6" opacity="0.7"/>
  
  <rect x="285" y="148" width="30" height="4" fill="#aab0b6" opacity="0.5"/>
  <rect x="285" y="156" width="30" height="4" fill="#aab0b6" opacity="0.6"/>
  <rect x="285" y="164" width="30" height="4" fill="#aab0b6" opacity="0.7"/>
  
  <!-- Data flows into process -->
  <path d="M175 135 C 185 135, 185 135, 195 135" stroke="#e61f34" stroke-width="1" stroke-dasharray="2,2"/>
  <path d="M175 150 C 185 150, 185 150, 195 150" stroke="#e61f34" stroke-width="1" stroke-dasharray="2,2"/>
  <path d="M175 165 C 185 165, 185 165, 195 165" stroke="#e61f34" stroke-width="1" stroke-dasharray="2,2"/>
  
  <!-- Data flows out of process -->
  <path d="M255 135 C 265 135, 265 135, 275 135" stroke="#e61f34" stroke-width="1" stroke-dasharray="2,2"/>
  <path d="M255 150 C 265 150, 265 150, 275 150" stroke="#e61f34" stroke-width="1" stroke-dasharray="2,2"/>
  <path d="M255 165 C 265 165, 265 165, 275 165" stroke="#e61f34" stroke-width="1" stroke-dasharray="2,2"/>
  
  <!-- Category labels -->
  <circle cx="150" cy="100" r="15" fill="white" stroke="#aab0b6" stroke-width="1"/>
  <line x1="145" y1="100" x2="155" y2="100" stroke="#aab0b6" stroke-width="1"/>
  <line x1="150" y1="95" x2="150" y2="105" stroke="#aab0b6" stroke-width="1"/>
  <path d="M150 115 L150 130" stroke="#aab0b6" stroke-width="1" stroke-dasharray="2,1"/>
  
  <circle cx="225" cy="100" r="15" fill="white" stroke="#e61f34" stroke-width="1"/>
  <line x1="225" y1="100" x2="225" y2="105" stroke="#e61f34" stroke-width="1"/>
  <circle cx="225" cy="95" r="2" fill="#e61f34"/>
  <path d="M225 115 L225 120" stroke="#e61f34" stroke-width="1" stroke-dasharray="2,1"/>
  
  <circle cx="300" cy="100" r="15" fill="white" stroke="#aab0b6" stroke-width="1"/>
  <line x1="295" y1="97" x2="305" y2="103" stroke="#aab0b6" stroke-width="1"/>
  <line x1="295" y1="103" x2="305" y2="97" stroke="#aab0b6" stroke-width="1"/>
  <path d="M300 115 L300 130" stroke="#aab0b6" stroke-width="1" stroke-dasharray="2,1"/>
  
  <!-- Rejected data elements -->
  <path d="M225 180 L225 200" stroke="#aab0b6" stroke-width="1" stroke-dasharray="3,2"/>
  <rect x="215" y="205" width="20" height="20" rx="2" ry="2" fill="white" stroke="#aab0b6" stroke-width="1"/>
  <line x1="220" y1="210" x2="230" y2="220" stroke="#aab0b6" stroke-width="1.5"/>
  <line x1="220" y1="220" x2="230" y2="210" stroke="#aab0b6" stroke-width="1.5"/>
  
  <!-- Filter/Group indicators -->
  <path d="M405 120 L405 180 M395 120 L415 120 M395 180 L415 180" stroke="#aab0b6" stroke-width="1.5" fill="none"/>
  <text x="395" y="150" font-family="sans-serif" font-size="8" fill="#aab0b6">F</text>
  <path d="M405 120 L375 120" stroke="#aab0b6" stroke-width="1" stroke-dasharray="2,1"/>
  <path d="M405 150 L375 150" stroke="#aab0b6" stroke-width="1" stroke-dasharray="2,1"/>
  <path d="M405 180 L375 180" stroke="#aab0b6" stroke-width="1" stroke-dasharray="2,1"/>
  
  <path d="M45 120 L45 180 M35 120 L55 120 M35 180 L55 180" stroke="#aab0b6" stroke-width="1.5" fill="none"/>
  <text x="40" y="150" font-family="sans-serif" font-size="8" fill="#aab0b6">G</text>
  <path d="M45 120 L75 120" stroke="#aab0b6" stroke-width="1" stroke-dasharray="2,1"/>
  <path d="M45 150 L75 150" stroke="#aab0b6" stroke-width="1" stroke-dasharray="2,1"/>
  <path d="M45 180 L75 180" stroke="#aab0b6" stroke-width="1" stroke-dasharray="2,1"/>
</svg>