<?xml version="1.0" encoding="UTF-8"?>
<svg width="407px" height="244px" viewBox="0 0 407 244" version="1.1" xmlns="http://www.w3.org/2000/svg" xmlns:xlink="http://www.w3.org/1999/xlink">
    <title>Group</title>
    <g id="Page-1" stroke="none" stroke-width="1" fill="none" fill-rule="evenodd">
        <g id="Artboard" transform="translate(-50.000000, -70.000000)">
            <g id="Group" transform="translate(50.000000, 72.000000)">
                <rect id="Rectangle" stroke="#BBBBBB" stroke-width="4" x="50" y="80" width="300" height="120" rx="10"></rect>
                <circle id="Oval" stroke="#BBBBBB" stroke-width="4" cx="100" cy="220" r="20"></circle>
                <circle id="Oval" stroke="#BBBBBB" stroke-width="4" cx="300" cy="220" r="20"></circle>
                <polyline id="Path" stroke="#BBBBBB" stroke-width="4" stroke-linecap="round" points="350 100 405 100 405 40 355 40"></polyline>
                <line x1="54" y1="137" x2="344.000223" y2="138.933335" id="Path" stroke="#F7F7F8" stroke-width="2" fill="#000000" fill-rule="nonzero"></line>
                <line x1="100" y1="83" x2="100" y2="196" id="Path" stroke="#F7F7F8" stroke-width="2" fill="#000000" fill-rule="nonzero"></line>
                <line x1="200" y1="83" x2="200" y2="196" id="Path" stroke="#F7F7F8" stroke-width="2" fill="#000000" fill-rule="nonzero"></line>
                <line x1="300" y1="83" x2="300" y2="196" id="Path" stroke="#F7F7F8" stroke-width="2" fill="#000000" fill-rule="nonzero"></line>
                <polygon id="Path" stroke="#E61F34" stroke-width="4" points="200 0 240 0 255 40 145 40 160 0"></polygon>
                <polyline id="Path" stroke="#E61F34" stroke-width="4" points="145 40 145 80 255 80 255 40"></polyline>
                <circle id="Oval" fill="#BBBBBB" fill-rule="nonzero" cx="355" cy="30" r="25"></circle>
                <line x1="355" y1="20" x2="355" y2="40" id="Path" stroke="#FFFFFF" stroke-width="4" fill="#000000" fill-rule="nonzero" stroke-linecap="round"></line>
                <line x1="345" y1="30" x2="365" y2="30" id="Path" stroke="#FFFFFF" stroke-width="4" fill="#000000" fill-rule="nonzero" stroke-linecap="round"></line>
                <rect id="Rectangle" stroke="#BBBBBB" stroke-width="3" fill="#F7F7F8" fill-rule="nonzero" x="75" y="100" width="40" height="40" rx="5"></rect>
                <rect id="Rectangle" stroke="#BBBBBB" stroke-width="3" fill="#F7F7F8" fill-rule="nonzero" x="130" y="100" width="40" height="40" rx="5"></rect>
                <rect id="Rectangle" stroke="#BBBBBB" stroke-width="3" fill="#F7F7F8" fill-rule="nonzero" x="185" y="100" width="40" height="40" rx="5"></rect>
                <rect id="Rectangle" fill="#E61F34" fill-rule="nonzero" opacity="0.9" x="240" y="100" width="85" height="40" rx="5"></rect>
                <rect id="Rectangle" fill="#BBBBBB" fill-rule="nonzero" x="0" y="170" width="400" height="4" rx="2"></rect>
            </g>
        </g>
    </g>
</svg>