<?xml version="1.0" encoding="UTF-8"?>
<svg width="480px" height="256px" viewBox="0 0 480 256" version="1.1" xmlns="http://www.w3.org/2000/svg" xmlns:xlink="http://www.w3.org/1999/xlink">
    <title>Group</title>
    <g id="Page-1" stroke="none" stroke-width="1" fill="none" fill-rule="evenodd">
        <g id="Artboard" transform="translate(-33.000000, -68.000000)">
            <g id="Group" transform="translate(33.000000, 70.000000)">
                <rect id="Rectangle" fill="#F7F7F8" fill-rule="nonzero" opacity="0.3" x="54" y="96" width="372" height="84"></rect>
                <rect id="Rectangle" fill="#F7F7F8" fill-rule="nonzero" x="0" y="204" width="480" height="4.8" rx="2.4"></rect>
                <line x1="54" y1="180" x2="426" y2="180" id="Path" stroke="#BBBBBB" stroke-width="3.6" fill="#000000" fill-rule="nonzero" stroke-linecap="round"></line>
                <line x1="54" y1="36" x2="54" y2="180" id="Path" stroke="#BBBBBB" stroke-width="3.6" fill="#000000" fill-rule="nonzero" stroke-linecap="round"></line>
                <line x1="54" y1="96" x2="426" y2="96" id="Path" stroke="#BBBBBB" stroke-width="2.4" fill="#000000" fill-rule="nonzero" stroke-dasharray="6,6"></line>
                <circle id="Oval" fill="#E61F34" fill-rule="nonzero" opacity="0.2" cx="234" cy="48" r="9.6"></circle>
                <circle id="Oval" fill="#E61F34" fill-rule="nonzero" opacity="0.2" cx="354" cy="72" r="9.6"></circle>
                <rect id="Rectangle" stroke="#BBBBBB" stroke-width="2.4" x="90" y="216" width="36" height="36" rx="3.6"></rect>
                <rect id="Rectangle" stroke="#BBBBBB" stroke-width="2.4" x="150" y="216" width="36" height="36" rx="3.6"></rect>
                <rect id="Rectangle" stroke="#BBBBBB" stroke-width="2.4" x="210" y="216" width="36" height="36" rx="3.6"></rect>
                <rect id="Rectangle" stroke="#BBBBBB" stroke-width="2.4" x="270" y="216" width="36" height="36" rx="3.6"></rect>
                <rect id="Rectangle" stroke="#BBBBBB" stroke-width="2.4" x="330" y="216" width="36" height="36" rx="3.6"></rect>
                <circle id="Oval" fill="#BBBBBB" fill-rule="nonzero" cx="54" cy="60" r="3.6"></circle>
                <circle id="Oval" fill="#BBBBBB" fill-rule="nonzero" cx="54" cy="96" r="3.6"></circle>
                <circle id="Oval" fill="#BBBBBB" fill-rule="nonzero" cx="54" cy="132" r="3.6"></circle>
                <circle id="Oval" fill="#BBBBBB" fill-rule="nonzero" cx="54" cy="168" r="3.6"></circle>
                <rect id="Rectangle" fill="#E61F34" fill-rule="nonzero" opacity="0.1" x="102" y="96" width="60" height="84"></rect>
                <rect id="Rectangle" fill="#E61F34" fill-rule="nonzero" opacity="0.1" x="294" y="96" width="60" height="84"></rect>
                <line x1="12" y1="120" x2="24" y2="120" id="Path" stroke="#BBBBBB" stroke-width="2.4" fill="#000000" fill-rule="nonzero" stroke-linecap="round"></line>
                <line x1="18" y1="114" x2="18" y2="126" id="Path" stroke="#BBBBBB" stroke-width="2.4" fill="#000000" fill-rule="nonzero" stroke-linecap="round"></line>
                <polyline id="Path" stroke="#E61F34" stroke-width="3.6" stroke-linecap="round" stroke-linejoin="round" points="54 120 114 108 174 144 234 48 294 156 354 72 414 132"></polyline>
                <polyline id="Path" stroke="#E61F34" stroke-width="2.4" stroke-linecap="round" stroke-linejoin="round" points="234 48 234 12 252 12"></polyline>
                <polyline id="Path" stroke="#E61F34" stroke-width="2.4" stroke-linecap="round" stroke-linejoin="round" points="252 18 258 0 264 18"></polyline>
                <polyline id="Path" stroke="#E61F34" stroke-width="2.4" stroke-linecap="round" stroke-linejoin="round" points="354 72 354 36 372 36"></polyline>
                <polyline id="Path" stroke="#E61F34" stroke-width="2.4" stroke-linecap="round" stroke-linejoin="round" points="372 42 378 24 384 42"></polyline>
            </g>
        </g>
    </g>
</svg>