<?xml version="1.0" encoding="UTF-8"?>
<svg width="480px" height="280px" viewBox="0 0 480 280" version="1.1" xmlns="http://www.w3.org/2000/svg" xmlns:xlink="http://www.w3.org/1999/xlink">
    <title>Group 2</title>
    <g id="Page-1" stroke="none" stroke-width="1" fill="none" fill-rule="evenodd">
        <g id="Artboard" transform="translate(-38.000000, -85.000000)">
            <g id="Group-2" transform="translate(38.000000, 87.000000)">
                <rect id="Rectangle" fill="#F7F7F8" fill-rule="nonzero" x="0" y="240" width="480" height="4.8" rx="2.4"></rect>
                <path d="M186,192 C196.025187,171.30058 217.000645,158.153394 240,158.153394 C262.999355,158.153394 283.974813,171.30058 294,192" id="Path" stroke="#E61F34" stroke-width="2.4"></path>
                <line x1="192" y1="174" x2="204" y2="162" id="Path" stroke="#BBBBBB" stroke-width="1.8" fill="#000000" fill-rule="nonzero"></line>
                <line x1="240" y1="168" x2="240" y2="156" id="Path" stroke="#BBBBBB" stroke-width="1.8" fill="#000000" fill-rule="nonzero"></line>
                <line x1="276" y1="174" x2="264" y2="162" id="Path" stroke="#BBBBBB" stroke-width="1.8" fill="#000000" fill-rule="nonzero"></line>
                <line x1="240" y1="192" x2="264" y2="162" id="Path" stroke="#E61F34" stroke-width="2.4" stroke-linecap="round"></line>
                <circle id="Oval" fill="#E61F34" fill-rule="nonzero" cx="240" cy="192" r="6"></circle>
                <rect id="Rectangle" stroke="#BBBBBB" stroke-width="2.4" x="90" y="72" width="48" height="36" rx="6"></rect>
                <rect id="Rectangle" stroke="#BBBBBB" stroke-width="2.4" x="90" y="156" width="48" height="36" rx="6"></rect>
                <rect id="Rectangle" stroke="#BBBBBB" stroke-width="2.4" x="90" y="240" width="48" height="36" rx="6"></rect>
                <rect id="Rectangle" stroke="#BBBBBB" stroke-width="2.4" x="342" y="72" width="48" height="36" rx="6"></rect>
                <rect id="Rectangle" stroke="#BBBBBB" stroke-width="2.4" x="342" y="156" width="48" height="36" rx="6"></rect>
                <rect id="Rectangle" stroke="#BBBBBB" stroke-width="2.4" x="342" y="240" width="48" height="36" rx="6"></rect>
                <line x1="138" y1="90" x2="162" y2="90" id="Path" stroke="#BBBBBB" stroke-width="2.4" stroke-linecap="round"></line>
                <polyline id="Path" stroke="#BBBBBB" stroke-width="2.4" stroke-linecap="round" stroke-linejoin="round" points="162 90 174 78 162 66"></polyline>
                <line x1="138" y1="174" x2="168" y2="174" id="Path" stroke="#BBBBBB" stroke-width="2.4" stroke-linecap="round"></line>
                <line x1="138" y1="258" x2="162" y2="258" id="Path" stroke="#BBBBBB" stroke-width="2.4" stroke-linecap="round"></line>
                <polyline id="Path" stroke="#BBBBBB" stroke-width="2.4" stroke-linecap="round" stroke-linejoin="round" points="162 258 174 246 162 234"></polyline>
                <line x1="318" y1="90" x2="342" y2="90" id="Path" stroke="#BBBBBB" stroke-width="2.4" stroke-linecap="round"></line>
                <polyline id="Path" stroke="#BBBBBB" stroke-width="2.4" stroke-linecap="round" stroke-linejoin="round" points="306 90 318 78 306 66"></polyline>
                <line x1="312" y1="174" x2="342" y2="174" id="Path" stroke="#BBBBBB" stroke-width="2.4" stroke-linecap="round"></line>
                <line x1="318" y1="258" x2="342" y2="258" id="Path" stroke="#BBBBBB" stroke-width="2.4" stroke-linecap="round"></line>
                <polyline id="Path" stroke="#BBBBBB" stroke-width="2.4" stroke-linecap="round" stroke-linejoin="round" points="306 258 318 246 306 234"></polyline>
                <g id="Group" transform="translate(42.000000, 24.000000)" stroke="#BBBBBB">
                    <rect id="Rectangle" stroke-width="1.8" x="0" y="0" width="36" height="24" rx="2.4"></rect>
                    <line x1="6" y1="6" x2="30" y2="6" id="Path" stroke-width="1.2" fill="#000000" fill-rule="nonzero"></line>
                    <line x1="6" y1="12" x2="30" y2="12" id="Path" stroke-width="1.2" fill="#000000" fill-rule="nonzero"></line>
                    <line x1="6" y1="18" x2="30" y2="18" id="Path" stroke-width="1.2" fill="#000000" fill-rule="nonzero"></line>
                </g>
                <g id="Group" transform="translate(402.000000, 24.000000)" stroke="#BBBBBB">
                    <rect id="Rectangle" stroke-width="1.8" x="0" y="0" width="36" height="24" rx="2.4"></rect>
                    <line x1="6" y1="6" x2="30" y2="6" id="Path" stroke-width="1.2" fill="#000000" fill-rule="nonzero"></line>
                    <line x1="6" y1="12" x2="30" y2="12" id="Path" stroke-width="1.2" fill="#000000" fill-rule="nonzero"></line>
                    <line x1="6" y1="18" x2="30" y2="18" id="Path" stroke-width="1.2" fill="#000000" fill-rule="nonzero"></line>
                </g>
                <rect id="Rectangle" stroke="#BBBBBB" stroke-width="1.8" fill="#F7F7F8" fill-rule="nonzero" x="18" y="156" width="42" height="36" rx="3.6"></rect>
                <line x1="30" y1="168" x2="48" y2="168" id="Path" stroke="#BBBBBB" stroke-width="1.2" fill="#000000" fill-rule="nonzero"></line>
                <line x1="30" y1="180" x2="42" y2="180" id="Path" stroke="#BBBBBB" stroke-width="1.2" fill="#000000" fill-rule="nonzero"></line>
                <rect id="Rectangle" stroke="#BBBBBB" stroke-width="1.8" fill="#F7F7F8" fill-rule="nonzero" x="420" y="156" width="42" height="36" rx="3.6"></rect>
                <line x1="432" y1="168" x2="450" y2="168" id="Path" stroke="#BBBBBB" stroke-width="1.2" fill="#000000" fill-rule="nonzero"></line>
                <line x1="432" y1="180" x2="444" y2="180" id="Path" stroke="#BBBBBB" stroke-width="1.2" fill="#000000" fill-rule="nonzero"></line>
                <polygon id="Path" stroke="#E61F34" stroke-width="2.4" points="240 36 258 48 276 36 276 12 258 0 240 12"></polygon>
                <text id="Q" fill="#E61F34" fill-rule="nonzero" font-family="Helvetica" font-size="16.8" font-weight="normal">
                    <tspan x="251.4" y="29.2">Q</tspan>
                </text>
                <circle id="Oval" fill="#E61F34" fill-rule="nonzero" cx="102" cy="90" r="3.6"></circle>
                <circle id="Oval" fill="#E61F34" fill-rule="nonzero" cx="126" cy="90" r="3.6"></circle>
                <circle id="Oval" fill="#E61F34" fill-rule="nonzero" cx="102" cy="174" r="3.6"></circle>
                <circle id="Oval" fill="#E61F34" fill-rule="nonzero" cx="126" cy="174" r="3.6"></circle>
                <circle id="Oval" fill="#E61F34" fill-rule="nonzero" cx="102" cy="258" r="3.6"></circle>
                <circle id="Oval" fill="#E61F34" fill-rule="nonzero" cx="126" cy="258" r="3.6"></circle>
                <circle id="Oval" fill="#E61F34" fill-rule="nonzero" cx="354" cy="90" r="3.6"></circle>
                <circle id="Oval" fill="#E61F34" fill-rule="nonzero" cx="378" cy="90" r="3.6"></circle>
                <circle id="Oval" fill="#E61F34" fill-rule="nonzero" cx="354" cy="174" r="3.6"></circle>
                <circle id="Oval" fill="#E61F34" fill-rule="nonzero" cx="378" cy="174" r="3.6"></circle>
                <circle id="Oval" fill="#E61F34" fill-rule="nonzero" cx="354" cy="258" r="3.6"></circle>
                <circle id="Oval" fill="#E61F34" fill-rule="nonzero" cx="378" cy="258" r="3.6"></circle>
                <circle id="Oval" stroke="#BBBBBB" stroke-width="3.6" fill="#F7F7F7" cx="240" cy="144" r="72"></circle>
                <polyline id="Path" stroke="#E61F34" stroke-width="6" stroke-linecap="round" stroke-linejoin="round" points="210 144 234 168 270 120"></polyline>
            </g>
        </g>
    </g>
</svg>