<svg viewBox="0 0 450 300" xmlns="http://www.w3.org/2000/svg">
  <!-- Background elements -->
  <rect x="25" y="220" width="400" height="4" rx="2" fill="#F7F7F8" />
  
  <!-- Growth chart base -->
  <line x1="70" y1="200" x2="380" y2="200" stroke="#BBBBBB" stroke-width="3" stroke-linecap="round" />
  <line x1="70" y1="80" x2="70" y2="200" stroke="#BBBBBB" stroke-width="3" stroke-linecap="round" />
  
  <!-- Steady growth line -->
  <path d="M70 180 L120 170 L170 160 L220 145 L270 125 L320 100 L370 80" fill="none" stroke="#e61f34" stroke-width="3" stroke-linecap="round" stroke-linejoin="round" />
  
  <!-- Area under growth curve -->
  <path d="M70 180 L120 170 L170 160 L220 145 L270 125 L320 100 L370 80 L370 200 L70 200 Z" fill="#e61f34" opacity="0.1" />
  
  <!-- Diversification portfolio circles -->
  <circle cx="225" cy="240" r="25" fill="none" stroke="#BBBBBB" stroke-width="2" />
  <path d="M225 215 L225 240 L250 240" fill="none" stroke="#BBBBBB" stroke-width="2" />
  <path d="M225 240 A25 25 0 0 0 250 265" fill="none" stroke="#e61f34" stroke-width="2" />
  <path d="M225 240 A25 25 0 0 1 200 265" fill="none" stroke="#BBBBBB" stroke-width="2" />
  <path d="M225 240 A25 25 0 0 1 205 220" fill="none" stroke="#BBBBBB" stroke-width="2" />
  
  <!-- Investment instrument icons -->
  <rect x="120" y="100" width="15" height="15" fill="#F7F7F8" stroke="#BBBBBB" stroke-width="1" />
  <path d="M170 120 L170 105 L185 105 L185 120 Z" fill="#F7F7F8" stroke="#BBBBBB" stroke-width="1" />
  <circle cx="220" cy="110" r="7.5" fill="#F7F7F8" stroke="#BBBBBB" stroke-width="1" />
  <path d="M265 110 l7.5 -7.5 l7.5 7.5 l-15 0 Z" fill="#F7F7F8" stroke="#BBBBBB" stroke-width="1" />
  <rect x="320" y="85" width="15" height="5" fill="#F7F7F8" stroke="#BBBBBB" stroke-width="1" />
  
  <!-- Key milestone markers -->
  <circle cx="170" cy="160" r="5" fill="#e61f34" />
  <circle cx="270" cy="125" r="5" fill="#e61f34" />
  <circle cx="370" cy="80" r="5" fill="#e61f34" />
  
  <!-- Financial planning elements -->
  <rect x="80" y="240" width="40" height="30" rx="5" fill="none" stroke="#BBBBBB" stroke-width="2" />
  <path d="M90 250 L110 250" stroke="#BBBBBB" stroke-width="2" stroke-linecap="round" />
  <path d="M90 260 L110 260" stroke="#BBBBBB" stroke-width="2" stroke-linecap="round" />
  
  <rect x="330" y="240" width="40" height="30" rx="5" fill="none" stroke="#BBBBBB" stroke-width="2" />
  <path d="M340 255 L360 255" stroke="#BBBBBB" stroke-width="2" stroke-linecap="round" />
  <path d="M350 245 L350 265" stroke="#BBBBBB" stroke-width="2" stroke-linecap="round" />
  
  <!-- Time indicators -->
  <line x1="70" y1="205" x2="70" y2="210" stroke="#BBBBBB" stroke-width="2" />
  <line x1="170" y1="205" x2="170" y2="210" stroke="#BBBBBB" stroke-width="2" />
  <line x1="270" y1="205" x2="270" y2="210" stroke="#BBBBBB" stroke-width="2" />
  <line x1="370" y1="205" x2="370" y2="210" stroke="#BBBBBB" stroke-width="2" />
  
  <!-- Value indicators -->
  <line x1="65" y1="180" x2="70" y2="180" stroke="#BBBBBB" stroke-width="2" />
  <line x1="65" y1="140" x2="70" y2="140" stroke="#BBBBBB" stroke-width="2" />
  <line x1="65" y1="100" x2="70" y2="100" stroke="#BBBBBB" stroke-width="2" />
  
  <!-- Shield icon for security -->
  <path d="M40 130 L50 120 L60 130 L60 150 L50 160 L40 150 Z" fill="none" stroke="#e61f34" stroke-width="2" />
  <path d="M45 135 L55 145" stroke="#e61f34" stroke-width="1.5" />
  <path d="M45 145 L55 135" stroke="#e61f34" stroke-width="1.5" />
  
  <!-- Goal achievement flag -->
  <path d="M370 80 L390 80 L390 65 L370 65 Z" fill="#e61f34" opacity="0.8" />
  <line x1="370" y1="65" x2="370" y2="95" stroke="#e61f34" stroke-width="2" />
  
  <!-- Growth indicators -->
  <path d="M170 145 L170 130 L180 130" fill="none" stroke="#e61f34" stroke-width="1.5" stroke-linecap="round" stroke-linejoin="round" />
  <path d="M270 110 L270 95 L280 95" fill="none" stroke="#e61f34" stroke-width="1.5" stroke-linecap="round" stroke-linejoin="round" />
  
  <!-- Tooltip element -->
  <rect x="300" y="150" width="60" height="30" rx="5" fill="#F7F7F8" stroke="#BBBBBB" stroke-width="1.5" />
  <line x1="310" y1="160" x2="350" y2="160" stroke="#BBBBBB" stroke-width="1" />
  <line x1="310" y1="170" x2="330" y2="170" stroke="#BBBBBB" stroke-width="1" />
</svg>
