<?xml version="1.0" encoding="UTF-8"?>
<svg width="480px" height="208px" viewBox="0 0 480 208" version="1.1" xmlns="http://www.w3.org/2000/svg" xmlns:xlink="http://www.w3.org/1999/xlink">
    <title>Group</title>
    <g id="Page-1" stroke="none" stroke-width="1" fill="none" fill-rule="evenodd">
        <g id="Artboard" transform="translate(-143.000000, -261.000000)">
            <g id="Group" transform="translate(143.000000, 263.000000)">
                <rect id="Rectangle" fill="#F7F7F8" fill-rule="nonzero" x="0" y="192" width="480" height="4.8" rx="2.4"></rect>
                <rect id="Rectangle" stroke="#E61F34" stroke-width="3.6" x="216" y="0" width="48" height="48" rx="6"></rect>
                <line x1="240" y1="6" x2="240" y2="42" id="Path" stroke="#E61F34" stroke-width="3.6" fill="#000000" fill-rule="nonzero" stroke-linecap="round"></line>
                <line x1="222" y1="24" x2="258" y2="24" id="Path" stroke="#E61F34" stroke-width="3.6" fill="#000000" fill-rule="nonzero" stroke-linecap="round"></line>
                <circle id="Oval" stroke="#BBBBBB" stroke-width="2.4" cx="78" cy="36" r="18"></circle>
                <path d="M78,54 C78,54 102,54 102,72 C102,90 96.3651823,140.980112 120.365182,140.980112" id="Path" stroke="#BBBBBB" stroke-width="2.4" stroke-linecap="round"></path>
                <path d="M78,54 C78,54 54,54 54,72" id="Path" stroke="#BBBBBB" stroke-width="2.4" stroke-linecap="round"></path>
                <rect id="Rectangle" stroke="#BBBBBB" stroke-width="2.4" fill="#F7F7F8" fill-rule="nonzero" x="174" y="144" width="48" height="60" rx="2.4"></rect>
                <line x1="186" y1="156" x2="210" y2="156" id="Path" stroke="#BBBBBB" stroke-width="1.8" fill="#000000" fill-rule="nonzero"></line>
                <line x1="186" y1="168" x2="210" y2="168" id="Path" stroke="#BBBBBB" stroke-width="1.8" fill="#000000" fill-rule="nonzero"></line>
                <line x1="186" y1="180" x2="198" y2="180" id="Path" stroke="#BBBBBB" stroke-width="1.8" fill="#000000" fill-rule="nonzero"></line>
                <line x1="186" y1="192" x2="204" y2="192" id="Path" stroke="#BBBBBB" stroke-width="1.8" fill="#000000" fill-rule="nonzero"></line>
                <rect id="Rectangle" stroke="#BBBBBB" stroke-width="2.4" x="342" y="156" width="36" height="18" rx="9"></rect>
                <line x1="360" y1="156" x2="360" y2="174" id="Path" stroke="#BBBBBB" stroke-width="2.4" fill="#000000" fill-rule="nonzero"></line>
                <polygon id="Path" stroke="#BBBBBB" stroke-width="2.4" points="390 156 402 156 405.6 168 405.6 192 386.4 192 386.4 168"></polygon>
                <rect id="Rectangle" stroke="#BBBBBB" stroke-width="1.8" x="388.8" y="144" width="14.4" height="12"></rect>
                <line x1="390" y1="174" x2="402" y2="174" id="Path" stroke="#BBBBBB" stroke-width="1.2" fill="#000000" fill-rule="nonzero"></line>
                <line x1="390" y1="180" x2="402" y2="180" id="Path" stroke="#BBBBBB" stroke-width="1.2" fill="#000000" fill-rule="nonzero"></line>
                <rect id="Rectangle" stroke="#BBBBBB" stroke-width="1.8" x="258" y="156" width="30" height="9.6" rx="1.2"></rect>
                <rect id="Rectangle" stroke="#BBBBBB" stroke-width="1.8" x="288" y="153.6" width="18" height="14.4"></rect>
                <line x1="306" y1="160.8" x2="318" y2="160.8" id="Path" stroke="#BBBBBB" stroke-width="1.8" fill="#000000" fill-rule="nonzero" stroke-linecap="round"></line>
                <line x1="288" y1="150" x2="288" y2="171.6" id="Path" stroke="#BBBBBB" stroke-width="1.2" fill="#000000" fill-rule="nonzero"></line>
                <line x1="294" y1="150" x2="294" y2="171.6" id="Path" stroke="#BBBBBB" stroke-width="1.2" fill="#000000" fill-rule="nonzero"></line>
                <line x1="300" y1="150" x2="300" y2="171.6" id="Path" stroke="#BBBBBB" stroke-width="1.2" fill="#000000" fill-rule="nonzero"></line>
                <path d="M354,24 C336,42 372,60 354,78 C336,96 372,114 354,132" id="Path" stroke="#BBBBBB" stroke-width="2.4"></path>
                <line x1="354" y1="132" x2="426" y2="132" id="Path" stroke="#BBBBBB" stroke-width="2.4" fill="#000000" fill-rule="nonzero"></line>
                <circle id="Oval" stroke="#E61F34" stroke-width="2.4" cx="240" cy="66" r="12"></circle>
                <circle id="Oval" fill="#E61F34" fill-rule="nonzero" opacity="0.5" cx="240" cy="66" r="6"></circle>
                <circle id="Oval" stroke="#BBBBBB" stroke-width="1.8" cx="210" cy="66" r="7.2"></circle>
                <circle id="Oval" stroke="#BBBBBB" stroke-width="1.8" cx="270" cy="66" r="7.2"></circle>
                <circle id="Oval" stroke="#BBBBBB" stroke-width="2.4" cx="126" cy="36" r="12"></circle>
                <path d="M114,60 L138,60 C138,60 144,78 126,78 C108,78 114,60 114,60" id="Path" stroke="#BBBBBB" stroke-width="2.4"></path>
                <circle id="Oval" stroke="#BBBBBB" stroke-width="2.4" cx="174" cy="36" r="12"></circle>
                <path d="M162,60 L186,60 C186,60 192,78 174,78 C156,78 162,60 162,60" id="Path" stroke="#BBBBBB" stroke-width="2.4"></path>
                <rect id="Rectangle" stroke="#BBBBBB" stroke-width="2.4" x="168" y="12" width="12" height="6"></rect>
                <circle id="Oval" fill="#E61F34" fill-rule="nonzero" cx="150" cy="36" r="3.6"></circle>
                <circle id="Oval" stroke="#BBBBBB" stroke-width="2.4" cx="42" cy="144" r="18"></circle>
                <line x1="30" y1="144" x2="54" y2="144" id="Path" stroke="#BBBBBB" stroke-width="1.8" fill="#000000" fill-rule="nonzero"></line>
                <line x1="42" y1="132" x2="42" y2="156" id="Path" stroke="#BBBBBB" stroke-width="1.8" fill="#000000" fill-rule="nonzero"></line>
                <line x1="30" y1="132" x2="54" y2="156" id="Path" stroke="#BBBBBB" stroke-width="1.8" fill="#000000" fill-rule="nonzero"></line>
                <line x1="30" y1="156" x2="54" y2="132" id="Path" stroke="#BBBBBB" stroke-width="1.8" fill="#000000" fill-rule="nonzero"></line>
                <path d="M426,24 C444,42 408,60 426,78 C444,96 408,114 426,132" id="Path" stroke="#BBBBBB" stroke-width="2.4"></path>
                <line x1="354" y1="24" x2="426" y2="24" id="Path" stroke="#BBBBBB" stroke-width="2.4" fill="#000000" fill-rule="nonzero"></line>
                <line x1="354" y1="78" x2="426" y2="78" id="Path" stroke="#BBBBBB" stroke-width="2.4" fill="#000000" fill-rule="nonzero"></line>
                <circle id="Oval" stroke="#BBBBBB" stroke-width="2.4" cx="126" cy="144" r="9.6"></circle>
                <polyline id="Path" stroke="#E61F34" stroke-width="2.4" stroke-linecap="round" stroke-linejoin="round" points="54 108 90 108 102 72 120 144 138 72 156 144 174 108 426 108"></polyline>
            </g>
        </g>
    </g>
</svg>