<?xml version="1.0" encoding="UTF-8"?>
<svg viewBox="0 0 800 800" xmlns="http://www.w3.org/2000/svg">
  <defs>
    <!-- Gradients -->
    <linearGradient id="redGradient" x1="0%" y1="0%" x2="100%" y2="100%">
      <stop offset="0%" stop-color="#e61f34" stop-opacity="0.9"/>
      <stop offset="100%" stop-color="#d21b2e" stop-opacity="0.9"/>
    </linearGradient>
    
    <linearGradient id="grayGradient" x1="0%" y1="0%" x2="100%" y2="100%">
      <stop offset="0%" stop-color="#aaaaaa" stop-opacity="0.8"/>
      <stop offset="100%" stop-color="#888888" stop-opacity="0.8"/>
    </linearGradient>
    
    <!-- Filters -->
    <filter id="glow" x="-20%" y="-20%" width="140%" height="140%">
      <feGaussianBlur stdDeviation="5" result="blur"/>
      <feComposite in="SourceGraphic" in2="blur" operator="over"/>
    </filter>
    
    <filter id="dropShadow" x="-20%" y="-20%" width="140%" height="140%">
      <feGaussianBlur in="SourceAlpha" stdDeviation="3"/>
      <feOffset dx="2" dy="2" result="offsetblur"/>
      <feComponentTransfer>
        <feFuncA type="linear" slope="0.2"/>
      </feComponentTransfer>
      <feMerge> 
        <feMergeNode/>
        <feMergeNode in="SourceGraphic"/> 
      </feMerge>
    </filter>
    
    <!-- Pattern -->
    <pattern id="gridPattern" width="40" height="40" patternUnits="userSpaceOnUse" patternTransform="rotate(45)">
      <path d="M 40 0 L 0 0 0 40" fill="none" stroke="#f0f0f0" stroke-width="0.5"/>
    </pattern>
  </defs>
  
  <!-- Background with subtle texture -->
  <rect width="800" height="800" fill="url(#gridPattern)" opacity="0.15"/>
  
  <!-- Main visualization elements -->
  <g transform="translate(400, 400)">
    <!-- Central platform hub -->
    <circle cx="0" cy="0" r="80" fill="url(#redGradient)" filter="url(#glow)"/>
    <circle cx="0" cy="0" r="65" fill="none" stroke="#ffffff" stroke-width="1.5" opacity="0.5"/>
    <circle cx="0" cy="0" r="50" fill="none" stroke="#ffffff" stroke-width="1" opacity="0.3"/>
    
    <!-- AI text in center -->
    <text x="0" y="15" font-family="Arial, sans-serif" font-size="45" font-weight="bold" fill="#ffffff" text-anchor="middle">AI</text>
    
    <!-- Outer ring -->
    <circle cx="0" cy="0" r="200" fill="none" stroke="#cccccc" stroke-width="0.5" stroke-dasharray="3,3" opacity="0.5"/>
    <circle cx="0" cy="0" r="250" fill="none" stroke="#cccccc" stroke-width="0.5" stroke-dasharray="2,5" opacity="0.3"/>
    
    <!-- Connection lines to data sources -->
    <g>
      <!-- Finance - Top left -->
      <path d="M-55,-55 C -80,-80 -110,-120 -130,-150" stroke="#e61f34" stroke-width="2" stroke-opacity="0.6" fill="none"/>
      <circle cx="-55" cy="-55" r="4" fill="#e61f34"/>
      
      <!-- Gaming - Left -->
      <path d="M-75,-15 C -100,-20 -140,-30 -170,-40" stroke="#e61f34" stroke-width="2" stroke-opacity="0.6" fill="none"/>
      <circle cx="-75" cy="-15" r="4" fill="#e61f34"/>
      
      <!-- Manufacturing - Bottom left -->
      <path d="M-55,55 C -80,70 -120,90 -150,100" stroke="#e61f34" stroke-width="2" stroke-opacity="0.6" fill="none"/>
      <circle cx="-55" cy="55" r="4" fill="#e61f34"/>
      
      <!-- Healthcare - Bottom -->
      <path d="M0,75 C 0,100 0,140 0,160" stroke="#e61f34" stroke-width="2" stroke-opacity="0.6" fill="none"/>
      <circle cx="0" cy="75" r="4" fill="#e61f34"/>
      
      <!-- E-commerce - Bottom right -->
      <path d="M55,55 C 80,70 120,90 150,100" stroke="#e61f34" stroke-width="2" stroke-opacity="0.6" fill="none"/>
      <circle cx="55" cy="55" r="4" fill="#e61f34"/>
      
      <!-- Technology - Right -->
      <path d="M75,-15 C 100,-20 140,-30 170,-40" stroke="#e61f34" stroke-width="2" stroke-opacity="0.6" fill="none"/>
      <circle cx="75" cy="-15" r="4" fill="#e61f34"/>
      
      <!-- Real Estate - Top right -->
      <path d="M55,-55 C 80,-80 100,-120 120,-150" stroke="#e61f34" stroke-width="2" stroke-opacity="0.6" fill="none"/>
      <circle cx="55" cy="-55" r="4" fill="#e61f34"/>
    </g>
    
    <!-- Data sources with refined industry icons -->
    <g>
      <!-- Finance - Top left -->
      <circle cx="-130" cy="-150" r="35" fill="url(#grayGradient)" filter="url(#dropShadow)"/>
      <g transform="translate(-145, -165) scale(0.6)">
        <path d="M25,10 L25,55 M40,10 L40,55" stroke="#ffffff" stroke-width="4" stroke-linecap="round"/>
        <path d="M10,20 L55,20" stroke="#ffffff" stroke-width="4" stroke-linecap="round"/>
        <path d="M15,55 L50,55" stroke="#ffffff" stroke-width="4" stroke-linecap="round"/>
        <path d="M20,35 L45,35" stroke="#ffffff" stroke-width="4" stroke-linecap="round"/>
      </g>
      
      <!-- Gaming/Gambling - Left -->
      <circle cx="-170" cy="-40" r="35" fill="url(#grayGradient)" filter="url(#dropShadow)"/>
      <g transform="translate(-185, -55) scale(0.6)">
        <circle cx="25" cy="25" r="20" fill="none" stroke="#ffffff" stroke-width="4"/>
        <circle cx="25" cy="25" r="5" fill="#ffffff"/>
        <path d="M25,5 L25,45 M5,25 L45,25" stroke="#ffffff" stroke-width="3"/>
      </g>
      
      <!-- Manufacturing - Bottom left -->
      <circle cx="-150" cy="100" r="35" fill="url(#grayGradient)" filter="url(#dropShadow)"/>
      <g transform="translate(-165, 85) scale(0.6)">
        <path d="M10,50 L50,50 L50,20 L30,20 L30,10 L10,10 Z" fill="none" stroke="#ffffff" stroke-width="4" stroke-linejoin="round"/>
        <path d="M15,50 L15,20 M40,50 L40,30" stroke="#ffffff" stroke-width="3"/>
        <rect x="20" y="30" width="15" height="10" fill="none" stroke="#ffffff" stroke-width="2"/>
      </g>
      
      <!-- Healthcare - Bottom -->
      <circle cx="0" cy="160" r="35" fill="url(#grayGradient)" filter="url(#dropShadow)"/>
      <g transform="translate(-15, 145) scale(0.6)">
        <path d="M25,5 L25,45 M5,25 L45,25" stroke="#ffffff" stroke-width="6" stroke-linecap="round"/>
        <circle cx="25" cy="25" r="5" fill="#ffffff"/>
      </g>
      
      <!-- E-commerce - Bottom right -->
      <circle cx="150" cy="100" r="35" fill="url(#grayGradient)" filter="url(#dropShadow)"/>
      <g transform="translate(135, 85) scale(0.6)">
        <path d="M5,15 L10,5 L40,5 L45,15" stroke="#ffffff" stroke-width="3" fill="none"/>
        <path d="M5,15 L5,40 L45,40 L45,15" stroke="#ffffff" stroke-width="3" fill="none"/>
        <circle cx="15" cy="45" r="5" stroke="#ffffff" stroke-width="2" fill="none"/>
        <circle cx="35" cy="45" r="5" stroke="#ffffff" stroke-width="2" fill="none"/>
        <path d="M15,15 L15,30 M25,15 L25,30 M35,15 L35,30" stroke="#ffffff" stroke-width="1"/>
      </g>
      
      <!-- Technology/IT - Right -->
      <circle cx="170" cy="-40" r="35" fill="url(#grayGradient)" filter="url(#dropShadow)"/>
      <g transform="translate(155, -55) scale(0.6)">
        <circle cx="25" cy="25" r="20" fill="none" stroke="#ffffff" stroke-width="4"/>
        <path d="M10,10 L40,40 M10,40 L40,10" stroke="#ffffff" stroke-width="3"/>
        <circle cx="25" cy="25" r="5" fill="#ffffff"/>
      </g>
      
      <!-- Real Estate - Top right -->
      <circle cx="120" cy="-150" r="35" fill="url(#grayGradient)" filter="url(#dropShadow)"/>
      <g transform="translate(105, -165) scale(0.6)">
        <path d="M5,30 L25,10 L45,30" stroke="#ffffff" stroke-width="3" fill="none"/>
        <path d="M10,30 L10,50 L40,50 L40,30" stroke="#ffffff" stroke-width="3" fill="none"/>
        <rect x="20" cy="35" width="10" height="15" stroke="#ffffff" stroke-width="2" fill="none"/>
      </g>
    </g>
    
    <!-- Insight/Analysis outputs -->
    <g>
      <!-- Main dashboard panel -->
      <rect x="200" y="-100" width="160" height="200" rx="5" ry="5" fill="url(#redGradient)" filter="url(#dropShadow)"/>
      <rect x="210" y="-90" width="140" height="180" rx="3" ry="3" fill="#ffffff" opacity="0.1"/>
      
      <!-- Dashboard elements -->
      <g transform="translate(220, -80) scale(0.7)">
        <!-- Bar chart -->
        <rect x="0" y="0" width="20" height="60" fill="#ffffff" opacity="0.8"/>
        <rect x="25" y="20" width="20" height="40" fill="#ffffff" opacity="0.8"/>
        <rect x="50" y="10" width="20" height="50" fill="#ffffff" opacity="0.8"/>
        <rect x="75" y="5" width="20" height="55" fill="#ffffff" opacity="0.8"/>
        <rect x="100" y="25" width="20" height="35" fill="#ffffff" opacity="0.8"/>
        
        <!-- Line chart -->
        <g transform="translate(0, 100)">
          <path d="M0,50 C 20,20 40,40 60,30 S 80,10 100,0 L 100,50 L 0,50 Z" fill="#ffffff" opacity="0.3"/>
          <path d="M0,50 C 20,20 40,40 60,30 S 80,10 100,0" fill="none" stroke="#ffffff" stroke-width="3" opacity="0.8"/>
          <circle cx="0" cy="50" r="4" fill="#ffffff"/>
          <circle cx="25" cy="25" r="4" fill="#ffffff"/>
          <circle cx="60" cy="30" r="4" fill="#ffffff"/>
          <circle cx="80" cy="15" r="4" fill="#ffffff"/>
          <circle cx="100" cy="0" r="4" fill="#ffffff"/>
        </g>
      </g>
    </g>
    
    <!-- Animated pulse effect -->
    <circle cx="0" cy="0" r="80" fill="none" stroke="#e61f34" stroke-width="2" opacity="0.5">
      <animate attributeName="r" values="85;130;85" dur="4s" repeatCount="indefinite"/>
      <animate attributeName="opacity" values="0.5;0;0.5" dur="4s" repeatCount="indefinite"/>
    </circle>
    
    <!-- Data flow animations -->
    <g>
      <!-- Animated particles from data sources to center -->
      <circle cx="-120" cy="-140" r="3" fill="#ffffff" opacity="0.8">
        <animate attributeName="cx" values="-130,-55,0" dur="2s" repeatCount="indefinite"/>
        <animate attributeName="cy" values="-150,-55,0" dur="2s" repeatCount="indefinite"/>
        <animate attributeName="opacity" values="0.8;1;0.2" dur="2s" repeatCount="indefinite"/>
      </circle>
      
      <circle cx="-150" cy="-40" r="3" fill="#ffffff" opacity="0.8">
        <animate attributeName="cx" values="-170,-75,0" dur="2.2s" repeatCount="indefinite"/>
        <animate attributeName="cy" values="-40,-15,0" dur="2.2s" repeatCount="indefinite"/>
        <animate attributeName="opacity" values="0.8;1;0.2" dur="2.2s" repeatCount="indefinite"/>
      </circle>
      
      <circle cx="-130" cy="90" r="3" fill="#ffffff" opacity="0.8">
        <animate attributeName="cx" values="-150,-55,0" dur="2.4s" repeatCount="indefinite"/>
        <animate attributeName="cy" values="100,55,0" dur="2.4s" repeatCount="indefinite"/>
        <animate attributeName="opacity" values="0.8;1;0.2" dur="2.4s" repeatCount="indefinite"/>
      </circle>
      
      <circle cx="0" cy="140" r="3" fill="#ffffff" opacity="0.8">
        <animate attributeName="cx" values="0,0,0" dur="1.8s" repeatCount="indefinite"/>
        <animate attributeName="cy" values="160,75,0" dur="1.8s" repeatCount="indefinite"/>
        <animate attributeName="opacity" values="0.8;1;0.2" dur="1.8s" repeatCount="indefinite"/>
      </circle>
      
      <circle cx="130" cy="90" r="3" fill="#ffffff" opacity="0.8">
        <animate attributeName="cx" values="150,55,0" dur="2.5s" repeatCount="indefinite"/>
        <animate attributeName="cy" values="100,55,0" dur="2.5s" repeatCount="indefinite"/>
        <animate attributeName="opacity" values="0.8;1;0.2" dur="2.5s" repeatCount="indefinite"/>
      </circle>
      
      <circle cx="150" cy="-40" r="3" fill="#ffffff" opacity="0.8">
        <animate attributeName="cx" values="170,75,0" dur="2.3s" repeatCount="indefinite"/>
        <animate attributeName="cy" values="-40,-15,0" dur="2.3s" repeatCount="indefinite"/>
        <animate attributeName="opacity" values="0.8;1;0.2" dur="2.3s" repeatCount="indefinite"/>
      </circle>
      
      <circle cx="110" cy="-130" r="3" fill="#ffffff" opacity="0.8">
        <animate attributeName="cx" values="120,55,0" dur="2.1s" repeatCount="indefinite"/>
        <animate attributeName="cy" values="-150,-55,0" dur="2.1s" repeatCount="indefinite"/>
        <animate attributeName="opacity" values="0.8;1;0.2" dur="2.1s" repeatCount="indefinite"/>
      </circle>
      
      <!-- Animated particles from center to dashboard -->
      <circle cx="50" cy="-20" r="3" fill="#e61f34" opacity="0.8">
        <animate attributeName="cx" values="0,100,200" dur="1.5s" repeatCount="indefinite"/>
        <animate attributeName="cy" values="0,-40,0" dur="1.5s" repeatCount="indefinite"/>
        <animate attributeName="opacity" values="0.2;1;0.8" dur="1.5s" repeatCount="indefinite"/>
      </circle>
      
      <circle cx="60" cy="10" r="3" fill="#e61f34" opacity="0.8">
        <animate attributeName="cx" values="0,100,200" dur="1.7s" repeatCount="indefinite"/>
        <animate attributeName="cy" values="0,20,0" dur="1.7s" repeatCount="indefinite"/>
        <animate attributeName="opacity" values="0.2;1;0.8" dur="1.7s" repeatCount="indefinite"/>
      </circle>
    </g>
    
    <!-- Connecting curves to dashboard -->
    <path d="M80,0 C 120,-20 150,-20 200,0" stroke="#e61f34" stroke-width="2" fill="none" opacity="0.6"/>
    
    <!-- Additional visual embellishments -->
    <g>
      <circle cx="-100" cy="-100" r="3" fill="#e61f34" opacity="0.3"/>
      <circle cx="-130" cy="-30" r="2" fill="#e61f34" opacity="0.2"/>
      <circle cx="-110" cy="80" r="4" fill="#e61f34" opacity="0.25"/>
      <circle cx="-20" cy="120" r="3" fill="#e61f34" opacity="0.15"/>
      <circle cx="60" cy="110" r="2" fill="#e61f34" opacity="0.2"/>
      <circle cx="110" cy="50" r="3" fill="#e61f34" opacity="0.3"/>
      <circle cx="130" cy="-20" r="2" fill="#e61f34" opacity="0.25"/>
      <circle cx="100" cy="-90" r="4" fill="#e61f34" opacity="0.2"/>
      <circle cx="40" cy="-130" r="3" fill="#e61f34" opacity="0.15"/>
      <circle cx="-30" cy="-120" r="2" fill="#e61f34" opacity="0.2"/>
    </g>
  </g>
</svg>